<?xml version="1.0" encoding="UTF-8" standalone="no"?>
<svg
   xmlns:dc="http://purl.org/dc/elements/1.1/"
   xmlns:cc="http://creativecommons.org/ns#"
   xmlns:rdf="http://www.w3.org/1999/02/22-rdf-syntax-ns#"
   xmlns:svg="http://www.w3.org/2000/svg"
   xmlns="http://www.w3.org/2000/svg"
   xmlns:sodipodi="http://sodipodi.sourceforge.net/DTD/sodipodi-0.dtd"
   xmlns:inkscape="http://www.inkscape.org/namespaces/inkscape"
   width="512.0px"
   height="512.0px"
   viewBox="0 0 512.0 512.0"
   version="1.1"
   id="SVGRoot"
   sodipodi:docname="ai_microchip.svg"
   inkscape:version="1.0.2 (e86c870879, 2021-01-15)">
  <defs
     id="defs18">
    <rect
       x="-260"
       y="500"
       width="300"
       height="220"
       id="rect117" />
  </defs>
  <sodipodi:namedview
     id="base"
     pagecolor="#ffffff"
     bordercolor="#666666"
     borderopacity="1.0"
     inkscape:pageopacity="0.0"
     inkscape:pageshadow="2"
     inkscape:zoom="0.98994949"
     inkscape:cx="177.00604"
     inkscape:cy="252.14552"
     inkscape:document-units="px"
     inkscape:current-layer="layer1"
     inkscape:document-rotation="0"
     showgrid="true"
     inkscape:window-width="1533"
     inkscape:window-height="1205"
     inkscape:window-x="26"
     inkscape:window-y="23"
     inkscape:window-maximized="0"
     inkscape:snap-nodes="true">
    <inkscape:grid
       type="xygrid"
       id="grid27" />
  </sodipodi:namedview>
  <metadata
     id="metadata21">
    <rdf:RDF>
      <cc:Work
         rdf:about="">
        <dc:format>image/svg+xml</dc:format>
        <dc:type
           rdf:resource="http://purl.org/dc/dcmitype/StillImage" />
        <dc:title />
      </cc:Work>
    </rdf:RDF>
  </metadata>
  <g
     inkscape:label="Layer 1"
     inkscape:groupmode="layer"
     id="layer1">
    <path
       id="rect34"
       style="fill:#080845;fill-rule:evenodd;stroke-width:0.90278;fill-opacity:1"
       d="M 180 40 C 168.92 40 160 48.92 160 60 L 160 99.441406 L 135.58594 99.441406 C 115.58039 99.441406 99.474609 115.54718 99.474609 135.55273 L 99.474609 160 L 60 160 C 48.92 160 40 168.92 40 180 C 40 191.08 48.92 200 60 200 L 99.474609 200 L 99.474609 240 L 60 240 C 48.92 240 40 248.92 40 260 C 40 271.08 48.92 280 60 280 L 99.474609 280 L 99.474609 320 L 60 320 C 48.92 320 40 328.92 40 340 C 40 351.08 48.92 360 60 360 L 99.474609 360 L 99.474609 388.33008 C 99.474609 408.33563 115.58039 424.44141 135.58594 424.44141 L 160 424.44141 L 160 460 C 160 471.08 168.92 480 180 480 C 191.08 480 200 471.08 200 460 L 200 424.44141 L 240 424.44141 L 240 460 C 240 471.08 248.92 480 260 480 C 271.08 480 280 471.08 280 460 L 280 424.44141 L 320 424.44141 L 320 460 C 320 471.08 328.92 480 340 480 C 351.08 480 360 471.08 360 460 L 360 424.44141 L 388.36328 424.44141 C 408.36883 424.44141 424.47461 408.33563 424.47461 388.33008 L 424.47461 360 L 460 360 C 471.08 360 480 351.08 480 340 C 480 328.92 471.08 320 460 320 L 424.47461 320 L 424.47461 280 L 460 280 C 471.08 280 480 271.08 480 260 C 480 248.92 471.08 240 460 240 L 424.47461 240 L 424.47461 200 L 460 200 C 471.08 200 480 191.08 480 180 C 480 168.92 471.08 160 460 160 L 424.47461 160 L 424.47461 135.55273 C 424.47461 115.54718 408.36883 99.441406 388.36328 99.441406 L 360 99.441406 L 360 60 C 360 48.92 351.08 40 340 40 C 328.92 40 320 48.92 320 60 L 320 99.441406 L 280 99.441406 L 280 60 C 280 48.92 271.08 40 260 40 C 248.92 40 240 48.92 240 60 L 240 99.441406 L 200 99.441406 L 200 60 C 200 48.92 191.08 40 180 40 z M 336.10938 169.29688 C 340.79344 169.23531 345.66134 170.67793 349.31641 173.66797 C 351.89087 175.92301 353.85507 179.10766 354.26953 182.52734 C 354.27723 230.71539 354.43206 278.90387 354.29102 327.0918 C 354.09659 330.72774 354.6454 334.47032 353.68359 338.02344 C 352.01297 344.11669 345.90454 347.80241 339.9707 348.74219 C 333.62105 349.73924 326.46603 347.95871 322.16602 342.97461 C 319.3246 339.6251 318.85155 335.06398 319.00977 330.8418 C 318.79815 284.66023 318.83243 238.47666 318.98242 192.29492 C 319.21667 187.29248 318.26942 181.88726 320.84375 177.31641 C 323.86186 172.01554 330.23852 169.46833 336.10938 169.29688 z M 227.19336 169.35742 C 233.92074 169.57174 240.54948 173.28334 243.83398 179.22852 C 246.18385 183.59206 247.61979 188.3785 249.54297 192.93555 C 266.80758 237.25248 284.023 281.58994 300.98047 326.02539 C 303.52566 331.36875 302.5251 338.03633 298.71875 342.52539 C 294.55341 347.78306 287.35299 349.37276 280.95703 348.75977 C 275.70054 348.44145 271.19825 344.74109 268.97852 340.10547 C 263.7332 326.83468 258.99439 313.36735 254 300 C 235.22206 300.0315 216.44396 300.06185 197.66602 300.09375 C 193.70334 310.6847 189.77423 321.28911 185.76172 331.86133 C 183.75059 336.59022 182.68166 342.08415 178.60938 345.5918 C 175.66567 348.40369 171.48658 349.28121 167.5332 349.05859 C 163.14556 348.83616 158.79206 347.16641 155.35156 344.43164 C 150.49734 340.66927 148.75455 333.72486 150.92188 328.03711 C 168.20951 282.81461 185.71129 237.67508 203.22852 192.54102 C 205.37162 187.57001 206.7289 182.18073 209.80469 177.66406 C 213.30669 172.39247 219.55779 169.29453 225.84766 169.36133 C 226.29608 169.34453 226.74486 169.34508 227.19336 169.35938 L 227.19336 169.35742 z M 225.95312 223.21094 C 220.59709 238.35081 214.825 253.33847 209.20898 268.38281 L 242.56641 268.38281 C 237.03889 253.36642 231.41106 238.38555 225.99609 223.32812 L 225.95312 223.21094 z " />
  </g>
</svg>
